<svg width="512" height="512" viewBox="0 0 512 512" fill="none" xmlns="http://www.w3.org/2000/svg">
<rect width="512" height="512" fill="black"/>
<g clip-path="url(#clip0_22_35)">
<mask id="mask0_22_35" style="mask-type:luminance" maskUnits="userSpaceOnUse" x="102" y="113" width="308" height="286">
<path d="M409.5 113H102.5V398.188H409.5V113Z" fill="white"/>
</mask>
<g mask="url(#mask0_22_35)">
<path d="M256.069 242.283C270.503 242.283 282.202 230.559 282.202 216.096C282.202 201.633 270.503 189.908 256.069 189.908C241.636 189.908 229.936 201.633 229.936 216.096C229.936 230.559 241.636 242.283 256.069 242.283Z" fill="white"/>
<path d="M256.069 316.71C281.441 316.71 302.009 296.1 302.009 270.677C302.009 245.252 281.441 224.641 256.069 224.641C230.697 224.641 210.129 245.252 210.129 270.677C210.129 296.1 230.697 316.71 256.069 316.71Z" fill="white"/>
<path d="M392.17 273.432C401.741 273.432 409.5 265.657 409.5 256.066C409.5 246.475 401.741 238.7 392.17 238.7C382.598 238.7 374.84 246.475 374.84 256.066C374.84 265.657 382.598 273.432 392.17 273.432Z" fill="white"/>
<path d="M119.831 273.251C129.402 273.251 137.161 265.476 137.161 255.885C137.161 246.294 129.402 238.518 119.831 238.518C110.259 238.518 102.5 246.294 102.5 255.885C102.5 265.476 110.259 273.251 119.831 273.251Z" fill="white"/>
<path d="M197.406 398.03C206.977 398.03 214.736 390.254 214.736 380.664C214.736 371.072 206.977 363.296 197.406 363.296C187.834 363.296 180.075 371.072 180.075 380.664C180.075 390.254 187.834 398.03 197.406 398.03Z" fill="white"/>
<path d="M314.594 398.03C324.166 398.03 331.924 390.254 331.924 380.664C331.924 371.072 324.166 363.296 314.594 363.296C305.023 363.296 297.264 371.072 297.264 380.664C297.264 390.254 305.023 398.03 314.594 398.03Z" fill="white"/>
<path d="M197.406 147.733C206.977 147.733 214.736 139.958 214.736 130.367C214.736 120.775 206.977 113 197.406 113C187.834 113 180.075 120.775 180.075 130.367C180.075 139.958 187.834 147.733 197.406 147.733Z" fill="white"/>
<path d="M314.594 147.733C324.166 147.733 331.924 139.958 331.924 130.367C331.924 120.775 324.166 113 314.594 113C305.023 113 297.264 120.775 297.264 130.367C297.264 139.958 305.023 147.733 314.594 147.733Z" fill="white"/>
<path d="M303.315 126.231H213.361L212.261 135.053H302.216L303.315 126.231Z" fill="white"/>
<path d="M303.315 376.529H213.361L212.261 385.349H302.216L303.315 376.529Z" fill="white"/>
<path opacity="0.2" d="M306.617 376.529H200.982V385.349H306.617V376.529Z" fill="white"/>
<path opacity="0.2" d="M306.617 126.231H200.982V135.053H306.617V126.231Z" fill="white"/>
<path d="M185.924 217.873L221.039 241.083C221.893 241.647 222.996 241.665 223.868 241.129L230.979 236.757C232.632 235.741 232.66 233.344 231.032 232.289L204.114 214.835C202.856 214.02 202.529 212.317 203.396 211.092L228.904 175.006C229.492 174.174 229.55 173.078 229.053 172.189L211.697 141.132C211.069 140.009 209.725 139.503 208.514 139.934L201.133 142.564C199.608 143.107 198.928 144.886 199.699 146.311L213.406 171.651C213.884 172.534 213.82 173.613 213.241 174.433L185.223 214.145C184.364 215.363 184.681 217.052 185.924 217.873Z" fill="white"/>
<path d="M326.107 217.879L289.675 242.384C288.777 242.989 287.599 242.981 286.709 242.365L279.854 237.621C278.314 236.557 278.342 234.268 279.906 233.241L307.909 214.84C309.157 214.02 309.476 212.326 308.614 211.106L283.096 175.006C282.508 174.174 282.45 173.078 282.947 172.189L300.303 141.132C300.931 140.009 302.274 139.503 303.485 139.934L310.867 142.564C312.391 143.107 313.073 144.886 312.301 146.311L298.593 171.651C298.116 172.534 298.18 173.613 298.759 174.433L326.79 214.163C327.645 215.374 327.336 217.053 326.107 217.879Z" fill="white"/>
<path d="M179.489 270.677H209.469C210.5 270.677 211.436 270.074 211.865 269.136L215.501 261.186C216.302 259.436 215.026 257.445 213.106 257.445H184.312C183.707 257.445 183.12 257.236 182.65 256.853L175.3 250.869C174.83 250.487 174.243 250.277 173.638 250.277H136.22C134.765 250.277 133.585 251.46 133.585 252.918V260.317C133.585 261.775 134.765 262.957 136.22 262.957H169.383C170.066 262.957 170.722 263.224 171.213 263.699L177.659 269.936C178.15 270.411 178.807 270.677 179.489 270.677Z" fill="white"/>
<path d="M332.785 270.125H298.589C297.218 270.125 296.076 269.071 295.962 267.703L295.301 259.753C295.173 258.214 296.384 256.893 297.927 256.893H327.964C328.569 256.893 329.155 256.684 329.625 256.302L336.976 250.318C337.446 249.935 338.032 249.726 338.637 249.726H376.055C377.511 249.726 378.689 250.908 378.689 252.367V259.766C378.689 261.224 377.511 262.406 376.055 262.406H342.892C342.21 262.406 341.553 262.672 341.062 263.147L334.617 269.384C334.125 269.859 333.468 270.125 332.785 270.125Z" fill="white"/>
<path d="M191.825 307.511L215.016 291.313C216.112 290.549 217.606 290.726 218.493 291.725L223.813 297.722C224.846 298.888 224.653 300.691 223.397 301.609L210.396 311.123C209.277 311.941 208.982 313.488 209.72 314.662L226.273 341.007C226.792 341.831 226.814 342.876 226.331 343.724L211.894 369.039C211.181 370.289 209.601 370.737 208.341 370.046L201.413 366.244C200.119 365.535 199.658 363.9 200.392 362.616L211.175 343.764C211.673 342.893 211.633 341.82 211.077 340.987L191.142 311.146C190.343 309.951 190.647 308.333 191.825 307.511Z" fill="white"/>
<path d="M322.149 307.503L297.419 289.736C296.156 288.828 294.387 289.207 293.606 290.554L289.379 297.839C288.7 299.008 289.013 300.501 290.103 301.299L303.53 311.123C304.649 311.941 304.943 313.488 304.205 314.662L287.653 341.007C287.134 341.831 287.111 342.876 287.595 343.724L302.032 369.039C302.744 370.289 304.325 370.737 305.585 370.046L312.513 366.244C313.807 365.535 314.269 363.9 313.535 362.616L302.75 343.764C302.253 342.893 302.293 341.82 302.85 340.985L322.803 311.118C323.594 309.933 323.304 308.333 322.149 307.503Z" fill="white"/>
<path d="M185.577 141.668L124.507 239.527L131.659 244.764L192.73 146.906L185.577 141.668Z" fill="white"/>
<path d="M381.716 243.386L320.921 146.079L327.523 140.014L389.694 239.527L381.716 243.386Z" fill="white"/>
<path d="M185.577 369.913L124.507 272.054L131.659 266.542L192.73 364.675L185.577 369.913Z" fill="white"/>
<path d="M381.991 267.92L321.196 365.227L328.073 370.74L389.143 272.882L381.991 267.92Z" fill="white"/>
</g>
</g>
<defs>
<clipPath id="clip0_22_35">
<rect width="307" height="286" fill="white" transform="translate(102.5 113)"/>
</clipPath>
</defs>
</svg>
